<svg version="1.1" viewBox="0.0 0.0 487.15485564304464 479.81627296587925" fill="none" stroke="none" stroke-linecap="square" stroke-miterlimit="10" xmlns:xlink="http://www.w3.org/1999/xlink" xmlns="http://www.w3.org/2000/svg"><clipPath id="p.0"><path d="m0 0l487.15485 0l0 479.81628l-487.15485 0l0 -479.81628z" clip-rule="nonzero"/></clipPath><g clip-path="url(#p.0)"><path fill="#000000" fill-opacity="0.0" d="m0 0l487.15485 0l0 479.81628l-487.15485 0z" fill-rule="evenodd"/><path fill="#ffffff" d="m147.59529 27.420328l75.433075 17.165354l-92.81889 407.811l-75.433075 -17.165344z" fill-rule="evenodd"/><path stroke="#ffffff" stroke-width="1.0" stroke-linejoin="round" stroke-linecap="butt" d="m147.59529 27.420328l75.433075 17.165354l-92.81889 407.811l-75.433075 -17.165344z" fill-rule="evenodd"/><path fill="#666666" d="m267.5917 43.830173l75.62204 -16.472439l89.165344 408.6299l-75.62204 16.472443z" fill-rule="evenodd"/><path stroke="#999999" stroke-width="1.0" stroke-linejoin="round" stroke-linecap="butt" d="m267.5917 43.830173l75.62204 -16.472439l89.165344 408.6299l-75.62204 16.472443z" fill-rule="evenodd"/><path fill="#ffffff" d="m342.57742 27.419947l0 77.35433l-195.87401 0l0 -77.35433z" fill-rule="evenodd"/><path stroke="#ffffff" stroke-width="1.0" stroke-linejoin="round" stroke-linecap="butt" d="m342.57742 27.419947l0 77.35433l-195.87401 0l0 -77.35433z" fill-rule="evenodd"/><path fill="#ffffff" d="m312.45407 166.93964l0 77.354324l-195.87402 0l0 -77.354324z" fill-rule="evenodd"/><path stroke="#ffffff" stroke-width="1.0" stroke-linejoin="round" stroke-linecap="butt" d="m312.45407 166.93964l0 77.354324l-195.87402 0l0 -77.354324z" fill-rule="evenodd"/><path fill="#666666" d="m286.3543 132.42873l26.425201 -5.7637787l46.015747 210.89764l-26.425201 5.7637634z" fill-rule="evenodd"/><path stroke="#666666" stroke-width="1.0" stroke-linejoin="round" stroke-linecap="butt" d="m286.3543 132.42873l26.425201 -5.7637787l46.015747 210.89764l-26.425201 5.7637634z" fill-rule="evenodd"/><path fill="#ffffff" d="m342.57742 104.77428l0 -77.35433l17.700806 77.35433z" fill-rule="evenodd"/><path stroke="#ffffff" stroke-width="1.0" stroke-linejoin="round" stroke-linecap="butt" d="m342.57742 104.77428l0 -77.35433l17.700806 77.35433z" fill-rule="evenodd"/></g></svg>