<svg version="1.1" viewBox="0.0 0.0 487.15485564304464 479.81627296587925" fill="none" stroke="none" stroke-linecap="square" stroke-miterlimit="10" xmlns:xlink="http://www.w3.org/1999/xlink" xmlns="http://www.w3.org/2000/svg"><clipPath id="p.0"><path d="m0 0l487.15485 0l0 479.81628l-487.15485 0l0 -479.81628z" clip-rule="nonzero"/></clipPath><g clip-path="url(#p.0)"><path fill="#000000" fill-opacity="0.0" d="m0 0l487.15485 0l0 479.81628l-487.15485 0z" fill-rule="evenodd"/><path fill="#000000" d="m147.59529 27.420328l75.433075 17.165354l-92.81889 407.811l-75.433075 -17.165344z" fill-rule="evenodd"/><path stroke="#000000" stroke-width="1.0" stroke-linejoin="round" stroke-linecap="butt" d="m147.59529 27.420328l75.433075 17.165354l-92.81889 407.811l-75.433075 -17.165344z" fill-rule="evenodd"/><path fill="#999999" d="m267.5917 43.830173l75.62204 -16.472439l89.165344 408.6299l-75.62204 16.472443z" fill-rule="evenodd"/><path stroke="#999999" stroke-width="1.0" stroke-linejoin="round" stroke-linecap="butt" d="m267.5917 43.830173l75.62204 -16.472439l89.165344 408.6299l-75.62204 16.472443z" fill-rule="evenodd"/><path fill="#000000" d="m342.57742 27.419947l0 77.35433l-195.87401 0l0 -77.35433z" fill-rule="evenodd"/><path stroke="#000000" stroke-width="1.0" stroke-linejoin="round" stroke-linecap="butt" d="m342.57742 27.419947l0 77.35433l-195.87401 0l0 -77.35433z" fill-rule="evenodd"/><path fill="#000000" d="m241.2673 68.97993l-0.21875 1.609375q-1.65625 -0.265625 -2.609375 -1.359375q-0.9375 -1.078125 -0.9375 -2.671875q0 -1.984375 1.296875 -3.1875q1.296875 -1.203125 3.71875 -1.203125q1.578125 0 2.75 0.515625q1.171875 0.515625 1.75 1.578125q0.59375 1.0625 0.59375 2.3125q0 1.578125 -0.796875 2.578125q-0.796875 1.0 -2.265625 1.28125l-0.234375 -1.59375q0.96875 -0.234375 1.453125 -0.8125q0.5 -0.578125 0.5 -1.390625q0 -1.234375 -0.890625 -2.015625q-0.890625 -0.78125 -2.8125 -0.78125q-1.953125 0 -2.84375 0.75q-0.875 0.75 -0.875 1.953125q0 0.96875 0.59375 1.609375q0.59375 0.65625 1.828125 0.828125z" fill-rule="nonzero"/><path fill="#000000" d="m312.45407 166.93964l0 77.354324l-195.87402 0l0 -77.354324z" fill-rule="evenodd"/><path stroke="#000000" stroke-width="1.0" stroke-linejoin="round" stroke-linecap="butt" d="m312.45407 166.93964l0 77.354324l-195.87402 0l0 -77.354324z" fill-rule="evenodd"/><path fill="#000000" d="m211.14395 208.49962l-0.21875 1.609375q-1.65625 -0.265625 -2.609375 -1.359375q-0.9375 -1.078125 -0.9375 -2.671875q0 -1.984375 1.296875 -3.1875q1.296875 -1.203125 3.71875 -1.203125q1.578125 0 2.75 0.515625q1.171875 0.515625 1.75 1.578125q0.59375 1.0625 0.59375 2.3125q0 1.578125 -0.796875 2.578125q-0.796875 1.0 -2.265625 1.28125l-0.234375 -1.59375q0.96875 -0.234375 1.453125 -0.8125q0.5 -0.578125 0.5 -1.390625q0 -1.234375 -0.890625 -2.015625q-0.890625 -0.78125 -2.8125 -0.78125q-1.953125 0 -2.84375 0.75q-0.875 0.75 -0.875 1.953125q0 0.96875 0.59375 1.609375q0.59375 0.65625 1.828125 0.828125z" fill-rule="nonzero"/><path fill="#999999" d="m286.3543 132.42873l26.425201 -5.7637787l46.015747 210.89764l-26.425201 5.7637634z" fill-rule="evenodd"/><path stroke="#999999" stroke-width="1.0" stroke-linejoin="round" stroke-linecap="butt" d="m286.3543 132.42873l26.425201 -5.7637787l46.015747 210.89764l-26.425201 5.7637634z" fill-rule="evenodd"/><path fill="#000000" d="m342.57742 104.77428l0 -77.35433l17.700806 77.35433z" fill-rule="evenodd"/><path stroke="#000000" stroke-width="1.0" stroke-linejoin="round" stroke-linecap="butt" d="m342.57742 104.77428l0 -77.35433l17.700806 77.35433z" fill-rule="evenodd"/></g></svg>